<svg xmlns="http://www.w3.org/2000/svg" viewBox="0 0 460.644 460.644"><path d="M73.432 90.125v279.211c0 9.693 7.857 17.55 17.55 17.55h279.21c9.693 0 17.55-7.857 17.55-17.55V90.125c0-9.693-7.857-17.55-17.55-17.55H90.982c-9.693 0-17.55 7.857-17.55 17.55z" fill="#fff" /><path d="M7.534 154.704a15.027 15.027 0 0 0 7.729 2.144c3.904 0 7.74-1.523 10.61-4.394l1.656-1.656a54.3 54.3 0 0 0 15.903-38.393v-69.83h69.831c14.4 0 28.211-5.72 38.393-15.903 3.404-3.404 5.216-8.196 4.511-12.958C155.039 6.1 148.604.81 141.305.81H15.266c-8.284 0-15 6.716-15 15v125.654c0 5.365 2.663 10.487 7.268 13.24zM150.206 432.789a54.294 54.294 0 0 0-38.393-15.904H43.432v-68.381a54.3 54.3 0 0 0-15.903-38.394l-1.627-1.627c-3.896-3.896-9.587-5.627-14.895-4.149A15.003 15.003 0 0 0 0 318.794v126.038c0 8.284 6.716 15 15 15h125.619c5.51 0 10.759-2.801 13.468-7.599a15.004 15.004 0 0 0-2.443-18.007l-1.438-1.437zM445.644.81H320.025c-5.51 0-10.759 2.801-13.468 7.599A15.004 15.004 0 0 0 309 26.416l.255.255a54.295 54.295 0 0 0 38.393 15.903h70.095v70.094c0 14.4 5.72 28.211 15.903 38.393l1.392 1.392a14.996 14.996 0 0 0 10.609 4.394c2.644 0 5.32-.698 7.744-2.153 4.598-2.759 7.253-7.881 7.253-13.243V15.81c0-8.283-6.716-15-15-15zM453.653 306.279a15.008 15.008 0 0 0-18.881 1.91l-1.127 1.127a54.295 54.295 0 0 0-15.903 38.393v69.177h-69.177a54.301 54.301 0 0 0-38.394 15.903l-1.143 1.143c-3.896 3.896-5.627 9.589-4.149 14.898a15.003 15.003 0 0 0 14.46 11.004h126.038c8.284 0 15-6.716 15-15V319.159c.001-5.135-2.429-10.065-6.724-12.88z" fill="#fff"/></svg>
